<?xml version="1.0" encoding="utf-8"?>
<!-- Generator: Adobe Illustrator 21.0.0, SVG Export Plug-In . SVG Version: 6.00 Build 0)  -->
<svg version="1.1" id="Layer_1" xmlns="http://www.w3.org/2000/svg" xmlns:xlink="http://www.w3.org/1999/xlink" x="0px" y="0px"
	 viewBox="0 0 295 88.7" style="enable-background:new 0 0 295 88.7;" xml:space="preserve">
<style type="text/css">
	.st0{fill:#FFFFFF;}
</style>
<title>logo</title>
<g>
	<path class="st0" d="M27.4,75.9c-7.2-0.1-13.8-3.9-17.6-10c-0.7-1.2-0.3-2.7,0.9-3.4c1.1-0.7,2.6-0.3,3.3,0.7
		c4,6.3,10.6,8.3,15.3,7.6c3.5-0.6,5.9-2.6,6.7-5.6c1.6-6.4-3.8-11.5-3.9-11.6c-1-0.9-1.1-2.5-0.2-3.5c0.3-0.3,0.7-0.6,1.2-0.7
		c0.5-0.1,11.7-3.5,11.8-16c0-5.8-3.8-12.2-9.5-16c-6.1-4-13.8-4.5-20.4-1.3c-4.7,2-8.2,6-9.3,11c-1.8,7.4,1,16.2,4.5,20.7
		c0.9,1.1,0.7,2.7-0.4,3.5S7,52.1,6.1,51c-4.4-5.6-7.6-16-5.4-25c1.5-6.4,6-11.8,12.1-14.4c8.7-3.9,17.6-3.3,25.2,1.6
		c7.2,4.7,11.9,12.6,11.8,20.2c0,8.2-4.6,15.7-12,19.3c2.9,3.9,4,8.9,2.9,13.6c-1.2,5-5.2,8.4-10.7,9.3
		C29.1,75.8,28.2,75.9,27.4,75.9z"/>
	<path class="st0" d="M17.2,79.7L17.2,79.7c-1.4,0-2.5-1.2-2.5-2.5c0,0,0,0,0,0l1-47.1c0-1.4,1.2-2.5,2.6-2.4s2.5,1.2,2.4,2.6
		l-1,47.1C19.7,78.6,18.6,79.7,17.2,79.7z"/>
	<path class="st0" d="M181.5,76.3c-1.4,0-2.5-1.1-2.5-2.4c0-0.2,0-0.4,0-0.6c-0.3-11.2-3.4-11.5-4.6-11.6c-0.6-0.1-1.3,0.1-1.8,0.5
		c-2,1.8-2,7.8-2,11.4c0,1.4-1.1,2.5-2.5,2.5s-2.5-1.1-2.5-2.5c0-8.8-1.9-10.5-2.5-10.8c-0.8-0.4-2.3,0-4.2,1.2
		c-3,2-5.3,2.5-7.2,2.2c0,1.1-0.2,2.2-0.5,3.3c-1.1,3.2-3.9,5.6-7.3,6c-3.1,0.6-6.3-0.4-8.5-2.7c-2.7,1.6-7.4,3.6-11.7,1.3
		c-3.4-1.8-5.5-6-6.6-10.1c-0.5,0.1-1,0.1-1.4,0c-1.3-0.2-2.5-0.6-3.5-1.3c-0.2,1-0.5,2-0.8,3.1c-2.4,7.6-6.5,9.6-9.5,10
		c-3.2,0.4-7.9-0.7-10.5-4.6c-2.6,3.2-6.6,4.9-10.7,4.7c-2.8,0-5.6-0.7-8.2-2c-0.8-0.4-1.5-0.8-2.1-1.4c-0.6-0.5-1.1-1.2-1.4-1.9
		c-0.5-1.3,0.2-2.7,1.5-3.2c1.2-0.4,2.4,0,3,1.1c0.1,0.2,0.3,0.3,0.4,0.5c0.3,0.2,0.6,0.4,0.9,0.5c0.5,0.2,1.1,0.3,1.7,0.2
		c0.6-0.1,1-0.4,1.3-0.9c0.7-1.1,1-2.4,0.7-3.7c-0.2-1.3-1.5-1.8-4.5-2.7c-1.2-0.3-2.4-0.8-3.5-1.3c-1.9,5.3-6.3,14.6-14.7,14.8
		c-2.5,0.1-4.9-0.9-6.6-2.8c-4.4-4.9-3.4-14.5-3.3-15.6c0.2-1.4,1.4-2.4,2.8-2.2c1.4,0.2,2.4,1.4,2.2,2.8c-0.2,2.2-0.4,8.9,2,11.6
		c0.7,0.8,1.8,1.2,2.8,1.1c7.5-0.2,10.9-14.4,11-14.6c0.3-1.3,1.6-2.2,3-1.9c0.7,0.2,1.3,0.6,1.6,1.2c0.5,0.9,2.3,1.4,4.1,1.9
		c3.1,0.9,7.2,2.1,8,6.7c0.4,2.2,0.1,4.6-1,6.6c3.1-0.4,5.6-2.5,6.6-5.4c0.3-1.1,0.8-6.8,1.2-32.5c0-0.4,0-0.8,0-1.2V31l0,0
		c0.2-1.5,0.7-2.6,2.4-2.6l0,0c1.4,0,2.5,1.2,2.5,2.6c0,0.1,0,0.2,0,0.2l-0.5,34.8c0.4,3,3.2,5.1,6.2,4.7c0.1,0,0.2,0,0.3,0
		c4.8-0.6,6.5-10.1,6.7-13.5c0.1-1.4,1.2-2.5,2.6-2.4c0.8,0,1.6,0.5,2,1.1c0.8,1.1,2.5,2.9,3.7,3c0.2,0,0.5,0,1-0.5
		c1-1,2.6-0.9,3.5,0.1c0.4,0.4,0.6,0.9,0.7,1.4c0.5,3.7,2.2,8.4,4.7,9.7c2,1.1,5-0.2,6.9-1.3c-0.1-0.5-0.2-0.9-0.2-1.4
		c-0.2-1.4-0.1-2.9,0.4-4.2c0.1-0.4,0.2-0.7,0.4-1.1c0.9-2.3,2.7-4,5-4.9c0.9-0.4,1.8-0.6,2.7-0.7h0.1c2.3-0.2,4.6,0.4,6.5,1.8
		c0.7,0.5,1.4,1.1,2.1,1.7c2.1,1.8,2.9,2.5,6.3,0.3c4.4-3,7.5-2.5,9.3-1.5c0.9,0.5,1.7,1.2,2.3,2c0.4-0.7,0.9-1.3,1.5-1.9
		c1.5-1.4,3.5-2,5.6-1.8c2.8,0.2,5.3,1.7,6.7,4.1c0.6-1.1,1.5-2.1,2.6-2.9c1.9-1.3,4.3-1.6,6.4-0.7c3.6,1.4,5.1,4.9,6.4,8
		c1.1,2.5,2.1,4.9,3.9,5.4c1.3,0.4,2.7,0.1,3.8-0.8c-0.5-2.5-0.4-5.1,0.3-7.6c0.3-1,0.8-2,1.4-2.8c3.4-3.8,8.8-5,13.4-3.1
		c1-1,2.6-1,3.5,0c0.3,0.3,0.6,0.8,0.7,1.3l0.1,0.3c1.5,7.4,3.4,10.1,4.7,11.5c1.2,1,2.7,1.5,4.3,1.4c1.6,0,3.2-0.4,4.7-1.2
		c-0.1-6.7-0.4-38.5-0.4-38.5c0-1.4,1.1-2.5,2.5-2.5c0,0,0,0,0,0l0,0c1.4,0,2.5,1.1,2.5,2.5l0.4,38.1c1.7,1.3,3.8,1.8,5.8,1.4
		c3.2-0.4,4.3-2.4,6.8-8.2c0.2-0.4,0.4-0.9,0.5-1.3c-1.4-11.7-2.4-26.6,1.3-30.9c0.9-1.1,2.2-1.7,3.5-1.6c1.4,0,2.7,0.8,3.5,2
		c3.1,4.8,0.9,20.2-3.2,31.1v0.3c1.5-2.6,3.7-4.6,6.7-4.5c4.4,0.1,7.2,3.8,10,7.5c1.7,2.2,3.4,4.4,5.1,5.3c4.5,2.4,7.3-1.6,7.6-2.1
		c0.8-1.2,2.3-1.5,3.5-0.7c1.2,0.8,1.5,2.3,0.7,3.5c-1.9,2.9-7.3,7.4-14.1,3.8c-2.7-1.4-4.8-4.1-6.7-6.7s-4.1-5.4-6.1-5.5l0,0
		c-2.2,0-4.4,6.4-5,11.1c-0.2,1.4-1.4,2.3-2.8,2.1c-1.1-0.1-1.9-1-2.1-2c-0.2-0.9-0.4-2.1-0.6-3.5c-1.8,2.9-4,4.9-8,5.4
		c-3,0.4-6-0.2-8.6-1.8c-0.6,0.4-1.2,0.7-1.9,1c-4.1,1.7-10.1,1.8-13.5-1.9c-0.7-0.8-1.4-1.7-2-2.6c-0.3,0.7-0.7,1.3-1.2,1.9
		c-1.7,2.2-4.3,3.5-7.1,3.6c-2.5,0.1-5-0.8-6.9-2.4c-2.4,2.1-5.7,2.9-8.8,1.9c-3.9-1.3-5.5-5-6.9-8.2c-1-2.4-2-4.7-3.6-5.3
		c-0.6-0.3-1.2-0.2-1.7,0.1c-1.4,1-2.9,4.4-2.8,10.9c0,0.3,0,0.5,0,0.8C184,75.1,182.9,76.3,181.5,76.3L181.5,76.3z M209.6,63.6
		c-0.6,1.9-0.2,3.9,0.9,5.5c1,1.2,2.5,1.9,4,1.8c1.3-0.1,2.5-0.7,3.4-1.7c0.9-1.1,1.7-3,1.6-6.5c-0.2-0.3-0.4-0.6-0.6-0.8
		c-1.2-1-2.7-1.5-4.2-1.4h-0.1c-1.6,0.1-3.1,0.9-4.3,2C210,62.9,209.8,63.3,209.6,63.6L209.6,63.6z M137.6,66.6
		c0.2,0.9,0.5,1.8,1.1,2.6c1,1.3,2.7,1.9,4.2,1.5c1.5-0.2,2.8-1.1,3.4-2.4c0.6-1.9,0.3-4-0.9-5.6c-0.2-0.2-0.4-0.5-0.7-0.7
		c-0.9-0.6-2-0.9-3.1-0.9c-0.5,0.1-1,0.2-1.5,0.4c-1,0.5-1.8,1.3-2.2,2.3c-0.1,0.2-0.1,0.3-0.2,0.5C137.6,65,137.6,65.8,137.6,66.6
		L137.6,66.6z M260.3,34.7c-0.7,2.1-1,6.7-0.7,12.7C260.7,41.8,260.9,37,260.3,34.7L260.3,34.7z"/>
	<path class="st0" d="M107.8,44.6H82.7c-1.4,0-2.5-1.1-2.5-2.5s1.1-2.5,2.5-2.5h25.2c1.4,0,2.5,1.1,2.5,2.5S109.2,44.6,107.8,44.6z"
		/>
	<path class="st0" d="M249.7,44.6h-20c-1.4,0-2.5-1.1-2.5-2.5s1.1-2.5,2.5-2.5h20c1.4,0,2.5,1.1,2.5,2.5S251.1,44.6,249.7,44.6
		L249.7,44.6z"/>
	<path class="st0" d="M50.5,51.9c-1.4,0-2.5-1.1-2.5-2.5c0,0,0,0,0,0c0-0.2,0-0.3,0-0.5c0-0.2,0.1-0.3,0.1-0.5
		c0.1-0.2,0.1-0.3,0.2-0.4c0.1-0.1,0.2-0.3,0.3-0.4c0.1-0.1,0.2-0.2,0.4-0.3c1-0.7,2.3-0.5,3.2,0.3c0.1,0.1,0.2,0.2,0.3,0.4
		c0.1,0.1,0.2,0.3,0.2,0.4c0.1,0.2,0.1,0.3,0.1,0.5c0,0.2,0,0.3,0,0.5c0,0.7-0.3,1.3-0.7,1.8c-0.1,0.1-0.2,0.2-0.4,0.3
		c-0.1,0.1-0.3,0.2-0.4,0.2c-0.1,0.1-0.3,0.1-0.5,0.2C50.8,51.9,50.6,51.9,50.5,51.9z"/>
</g>
</svg>
